:SAMPLES-PER-SECOND 30
:FULLY-SPECIFIED
:DEGREES
305
root  -14.0886 38.5508 -19.7903 -5.49557 -44.419 -1.33097
RightUpLeg  -10.9564 -1.46836 -10.9382
RightLeg  15.7545 12.9019 3.36114
RightFoot  -1.61417 -0.969896 11.2404
RightToes  5.82063e-011 0 -3.6325e-017
Spine  7.61508 -1.57255 8.39901
Spine1  8.94351 -0.224579 -4.26647
HEad  -11.5178 19.4872 -7.42069
LeftShoulder1  -0.347365 4.43568 -31.1396
LeftArm  1.65527 7.1914 -41.5213
LeftForeArm  19.1495 -32.7352 -6.12676
LeftHand  -0.188527 0.640744 4.76366
RightShoulder  -0.585226 -5.2799 26.1928
RightArm  10.1054 -5.52895 40.8758
RightForeArm  2.20042 11.833 5.40424
RightHand  -0.520083 2.88111 -7.52234
LeftUpLeg  8.44683 -18.1226 -8.5641
LeftLeg  25.8106 -8.24055 -4.03784
LeftFoot  -17.6727 0.817626 12.8212
LeftToes  1.81573e-012 2.54609e-010 -3.45981e-011
306
root  -14.9315 38.6634 -19.667 -3.8252 -40.3223 -2.10175
RightUpLeg  -10.4379 -4.09825 -10.1246
RightLeg  16.8773 11.3873 3.20383
RightFoot  -3.35731 -0.752466 10.429
RightToes  5.82063e-011 0 -3.6325e-017
Spine  7.20637 -1.64386 8.83665
Spine1  8.40603 -0.761121 -1.805
HEad  -12.5187 18.4611 -6.96295
LeftShoulder1  -0.351897 4.44479 -31.245
LeftArm  3.01812 6.88835 -43.1087
LeftForeArm  14.2701 -25.2824 -4.77008
LeftHand  -0.137189 3.03251 6.0281
RightShoulder  -0.519721 -5.10222 25.7182
RightArm  11.7523 -4.40842 39.9965
RightForeArm  -0.109096 13.5624 5.50272
RightHand  -0.569904 3.63042 -7.58157
LeftUpLeg  4.91212 -17.3833 -5.80404
LeftLeg  31.2936 -9.28277 -5.70759
LeftFoot  -15.9249 0.434802 8.02404
LeftToes  1.81573e-012 2.54609e-010 -3.45981e-011
307
root  -15.709 38.8797 -19.5633 -2.81421 -36.9124 -1.82857
RightUpLeg  -9.7264 -6.76117 -9.69806
RightLeg  16.6548 10.5585 2.59991
RightFoot  -4.16386 -0.619894 9.41611
RightToes  5.82063e-011 0 -3.6325e-017
Spine  7.30241 -1.392 9.75956
Spine1  7.12618 -0.315679 -1.71168
HEad  -13.8105 16.8135 -6.21984
LeftShoulder1  -0.24859 4.17727 -30.7931
LeftArm  4.06724 7.81755 -43.5423
LeftForeArm  11.5615 -19.9906 -4.84289
LeftHand  -0.138029 2.4699 5.09684
RightShoulder  -0.529788 -5.13312 25.7107
RightArm  13.5577 -3.77212 39.7174
RightForeArm  -0.594443 15.0724 5.50696
RightHand  -0.585068 3.37707 -7.97995
LeftUpLeg  0.499217 -13.1505 -3.07996
LeftLeg  36.626 -9.54914 -7.19119
LeftFoot  -11.6581 0.0819375 1.57947
LeftToes  1.81573e-012 2.54609e-010 -3.45981e-011
308
root  -16.3907 39.0929 -19.4366 -2.4996 -33.9457 -1.24351
RightUpLeg  -8.3337 -9.95775 -9.89647
RightLeg  15.8486 10.7459 2.5353
RightFoot  -4.90059 -0.541895 9.02145
RightToes  5.82063e-011 0 -3.6325e-017
Spine  8.0385 -1.23684 11.1221
Spine1  6.1195 0.3518 -2.95053
HEad  -16.2912 15.3089 -6.40736
LeftShoulder1  -0.204829 4.06357 -30.4513
LeftArm  4.01619 9.43549 -42.5911
LeftForeArm  12.1109 -17.6522 -5.98165
LeftHand  -0.0795981 3.21147 3.34759
RightShoulder  -0.471632 -4.98806 24.93
RightArm  14.508 -3.63197 40.6847
RightForeArm  -0.943971 16.8996 5.23755
RightHand  -0.635619 3.52068 -8.52283
LeftUpLeg  -3.44073 -8.24554 -1.62409
LeftLeg  41.1263 -7.59919 -6.63685
LeftFoot  -7.07534 0.127653 -2.74615
LeftToes  1.81573e-012 2.54609e-010 -3.45981e-011
309
root  -17.0334 39.3083 -19.2856 -2.4805 -31.071 -0.539873
RightUpLeg  -6.52176 -12.2493 -10.4857
RightLeg  14.6873 10.2216 2.54733
RightFoot  -5.3968 -0.495761 8.82361
RightToes  5.82063e-011 0 -3.6325e-017
Spine  8.54642 -1.13793 12.5251
Spine1  5.81834 1.04459 -4.68438
HEad  -18.6422 13.9991 -7.12805
LeftShoulder1  -0.134817 3.87303 -30.3889
LeftArm  5.42981 11.334 -40.8749
LeftForeArm  13.8592 -17.219 -6.32729
LeftHand  -0.0249843 5.15861 1.62659
RightShoulder  -0.461385 -4.965 24.7096
RightArm  16.2854 -2.83934 41.1692
RightForeArm  -2.72007 18.6181 5.16257
RightHand  -0.662835 3.36579 -9.02176
LeftUpLeg  -6.64874 -3.61651 -1.32294
LeftLeg  44.1722 -2.96 -2.68228
LeftFoot  -3.59453 0.185505 -2.42415
LeftToes  1.81573e-012 2.54609e-010 -3.45981e-011
310
root  -17.65 39.5317 -19.0846 -2.45587 -28.4827 0.245592
RightUpLeg  -4.46315 -13.4257 -11.2433
RightLeg  12.9069 8.89092 2.54202
RightFoot  -5.75677 -0.460281 8.61297
RightToes  5.82063e-011 0 -3.6325e-017
Spine  8.72817 -0.83503 13.0883
Spine1  5.78171 1.62262 -5.70881
HEad  -20.183 13.4411 -8.5646
LeftShoulder1  -0.172656 3.97051 -30.854
LeftArm  6.11777 13.5283 -39.0126
LeftForeArm  17.2749 -17.2458 -6.25645
LeftHand  -0.0205871 4.31611 -0.387765
RightShoulder  -0.443564 -4.92527 24.3189
RightArm  18.4622 -1.59246 41.3615
RightForeArm  -4.20976 20.1629 5.15141
RightHand  -0.668661 3.98522 -8.5336
LeftUpLeg  -9.62073 1.13637 -1.37098
LeftLeg  46.5521 -0.299252 0.0577677
LeftFoot  -4.07474 0.13197 -1.69173
LeftToes  1.81573e-012 2.54609e-010 -3.45981e-011
311
root  -18.2225 39.671 -18.8364 -2.17526 -25.1892 0.718014
RightUpLeg  -2.45025 -13.8595 -11.7135
RightLeg  11.4077 6.12976 2.29543
RightFoot  -6.39419 -0.406005 8.37891
RightToes  5.82063e-011 0 -3.6325e-017
Spine  8.56734 -0.776539 13.5085
Spine1  5.64213 1.7655 -6.22383
HEad  -20.6797 13.5826 -9.54154
LeftShoulder1  -0.211561 4.07134 -31.1555
LeftArm  6.76763 15.9433 -37.5909
LeftForeArm  18.2451 -17.1778 -6.32181
LeftHand  -0.0252154 4.77461 -0.0868676
RightShoulder  -0.431864 -4.89153 24.2178
RightArm  19.8876 -0.431012 41.2455
RightForeArm  -4.53031 21.474 5.10894
RightHand  -0.733228 4.63379 -8.75735
LeftUpLeg  -12.563 4.13278 -1.73243
LeftLeg  47.4943 -0.027201 0.387626
LeftFoot  -4.22506 0.116921 -1.47226
LeftToes  1.81573e-012 2.54609e-010 -3.45981e-011
